<svg id="SvgjsSvg1016" width="288" height="288" xmlns="http://www.w3.org/2000/svg" version="1.1" xmlns:xlink="http://www.w3.org/1999/xlink" xmlns:svgjs="http://svgjs.com/svgjs"><defs id="SvgjsDefs1017"></defs><g id="SvgjsG1018" transform="matrix(1,0,0,1,0,0)"><svg xmlns="http://www.w3.org/2000/svg" width="288" height="288" viewBox="0 0 400 377.441"><path fill-rule="evenodd" d="M152.390 63.098 C 118.740 66.292,104.557 113.643,118.937 174.782 C 119.349 176.536,119.687 178.024,119.687 178.089 C 119.687 178.419,120.274 177.793,122.791 174.782 L 125.538 171.496 124.705 167.053 C 115.419 117.513,127.348 80.842,154.256 76.207 C 168.437 73.765,186.822 81.664,203.199 97.237 L 205.342 99.274 209.146 97.445 C 211.238 96.440,212.985 95.585,213.028 95.546 C 213.353 95.251,204.091 86.251,199.373 82.279 C 183.128 68.601,166.392 61.769,152.390 63.098 M256.606 83.562 C 232.753 85.958,204.921 98.608,178.120 119.236 C 175.096 121.564,174.828 121.862,175.927 121.685 C 176.695 121.560,180.557 121.247,185.098 120.941 L 188.160 120.735 191.365 118.566 C 248.936 79.607,298.500 88.486,294.455 137.033 L 294.289 139.028 295.395 139.489 C 296.004 139.743,298.001 140.746,299.835 141.719 C 302.092 142.916,303.216 143.409,303.316 143.247 C 303.398 143.115,303.669 141.919,303.918 140.589 C 308.005 118.790,303.501 101.405,291.279 91.810 C 282.959 85.279,270.061 82.211,256.606 83.562 M216.546 105.677 C 214.733 106.459,213.200 107.149,213.139 107.209 C 213.078 107.270,213.648 108.030,214.406 108.898 C 234.531 131.974,252.105 167.293,259.945 200.418 C 260.489 202.715,261.043 205.016,261.177 205.531 L 261.421 206.466 264.131 202.958 C 267.396 198.732,267.191 199.656,265.907 194.939 C 256.987 162.166,241.626 131.037,221.948 105.853 C 220.406 103.880,220.692 103.889,216.546 105.677 M189.525 122.205 C 166.859 123.088,144.292 127.017,125.640 133.326 L 122.924 134.245 122.958 138.470 C 122.976 140.794,123.025 142.729,123.066 142.771 C 123.108 142.812,124.315 142.375,125.749 141.800 C 153.033 130.847,190.894 126.437,225.170 130.220 C 226.606 130.378,227.816 130.473,227.860 130.431 C 227.922 130.372,224.537 124.491,223.750 123.291 C 223.184 122.428,201.487 121.740,189.525 122.205 M238.010 126.005 C 238.422 126.723,239.434 128.498,240.258 129.949 L 241.756 132.586 245.108 133.268 C 280.338 140.431,306.877 155.743,316.165 174.262 C 327.149 196.164,312.122 219.568,277.702 234.166 C 275.979 234.896,274.536 235.515,274.495 235.541 C 274.454 235.567,274.489 237.467,274.573 239.764 L 274.726 243.940 277.363 243.006 C 355.972 215.164,350.524 155.426,267.154 131.068 C 258.645 128.582,240.611 124.700,237.572 124.700 C 237.342 124.700,237.458 125.043,238.010 126.005 M169.399 131.696 C 167.274 131.960,164.741 132.293,163.769 132.436 L 162.003 132.698 159.174 135.357 C 133.385 159.601,113.403 187.625,102.686 214.580 C 100.724 219.514,100.673 218.936,103.228 220.712 C 104.411 221.534,106.077 222.637,106.930 223.162 L 108.481 224.118 109.985 219.579 C 117.074 198.186,129.750 177.340,148.624 156.031 C 154.250 149.680,166.884 137.432,172.677 132.712 C 174.876 130.921,175.098 130.990,169.399 131.696 M108.366 140.235 C 48.166 168.626,54.092 217.574,120.731 242.359 C 128.712 245.327,147.408 250.600,148.512 250.194 C 148.661 250.139,147.405 247.716,144.703 242.842 L 144.021 241.611 140.253 240.524 C 93.944 227.165,70.877 200.048,83.856 174.225 C 88.590 164.806,98.835 155.201,111.082 148.702 C 112.815 147.782,112.817 147.780,112.713 147.050 C 112.655 146.648,112.492 144.603,112.351 142.507 C 112.183 140.007,112.015 138.695,111.863 138.695 C 111.736 138.695,110.162 139.388,108.366 140.235 M190.817 151.767 C 176.370 154.013,165.060 165.709,163.014 180.522 L 162.877 181.514 168.014 181.514 L 173.151 181.514 173.269 180.940 C 177.644 159.499,204.672 154.451,216.068 172.946 C 217.402 175.112,218.250 177.368,218.993 180.731 L 219.120 181.305 217.583 181.305 L 216.046 181.305 215.591 179.605 C 212.252 167.129,198.206 160.983,186.790 167.003 C 171.079 175.288,173.225 198.644,190.183 203.930 C 195.137 205.474,202.080 204.819,205.666 202.470 C 206.187 202.128,206.206 202.137,207.342 203.274 L 208.491 204.423 207.027 205.192 C 192.160 213.004,174.435 203.172,173.031 186.334 L 172.890 184.648 167.803 184.648 L 162.715 184.648 162.719 185.326 C 162.857 211.162,192.603 226.952,214.413 212.767 L 215.875 211.816 219.373 215.305 L 222.872 218.794 226.423 215.248 C 228.376 213.298,229.974 211.605,229.974 211.487 C 229.974 211.369,228.987 210.288,227.780 209.085 L 225.586 206.899 224.286 208.198 L 222.986 209.498 223.974 210.501 L 224.962 211.503 223.914 212.535 L 222.867 213.567 219.541 210.246 L 216.215 206.925 214.511 208.243 C 196.323 222.313,170.419 211.842,166.599 188.877 L 166.486 188.198 168.038 188.198 L 169.589 188.198 169.722 188.982 C 173.149 209.291,198.022 218.649,213.264 205.364 L 213.995 204.727 210.446 201.162 C 208.494 199.202,206.825 197.598,206.736 197.598 C 206.648 197.598,206.026 197.973,205.354 198.431 C 188.984 209.606,170.514 186.770,184.717 172.916 C 194.650 163.226,212.596 170.197,212.634 183.760 L 212.637 184.856 217.755 184.856 L 222.872 184.856 222.871 183.655 C 222.866 176.224,218.318 167.729,211.857 163.083 C 197.337 152.642,176.516 159.195,170.885 175.979 L 170.254 177.859 168.678 177.920 C 167.811 177.954,167.102 177.931,167.102 177.870 C 167.102 177.809,167.396 176.843,167.755 175.722 C 173.094 159.052,191.756 150.450,207.752 157.284 C 224.610 164.487,231.097 184.743,221.549 200.366 C 220.521 202.047,220.691 202.016,219.442 200.748 L 218.430 199.720 219.364 198.085 C 220.979 195.259,222.216 191.769,222.582 189.006 L 222.718 187.982 217.534 188.038 L 212.351 188.094 212.103 189.034 C 211.663 190.700,210.957 192.235,209.899 193.826 L 208.865 195.380 210.066 196.594 C 210.726 197.261,211.335 197.807,211.419 197.807 C 211.732 197.807,213.510 195.068,214.323 193.335 L 215.164 191.540 216.720 191.540 C 217.576 191.540,218.277 191.590,218.277 191.652 C 218.277 192.648,215.414 197.990,214.188 199.280 C 213.462 200.045,213.354 199.887,217.246 203.762 L 220.811 207.311 221.637 206.391 C 226.514 200.964,229.538 192.720,229.552 184.815 C 229.590 164.218,211.271 148.589,190.817 151.767 M291.297 153.773 C 281.480 185.704,259.396 217.278,228.210 243.968 C 226.839 245.142,226.251 245.766,226.476 245.809 C 226.802 245.872,233.296 245.090,236.737 244.574 L 238.383 244.328 241.333 241.566 C 266.665 217.850,286.895 189.272,297.589 162.095 L 298.943 158.655 298.349 158.169 C 297.825 157.741,292.330 154.035,291.643 153.647 C 291.498 153.564,291.343 153.620,291.297 153.773 M126.763 187.311 C 125.773 188.890,124.693 190.669,124.362 191.263 L 123.760 192.344 124.777 195.441 C 134.599 225.356,152.937 258.999,169.055 276.674 L 169.922 277.625 173.842 276.285 C 175.998 275.548,177.820 274.887,177.891 274.815 C 177.962 274.744,177.238 273.861,176.282 272.852 C 156.659 252.159,136.921 215.627,129.049 185.431 C 128.708 184.120,128.817 184.031,126.763 187.311 M268.291 214.673 C 267.385 215.679,265.968 217.206,265.141 218.068 L 263.638 219.634 264.026 222.768 C 272.716 293.029,235.210 323.415,188.154 284.237 L 185.669 282.167 181.607 284.008 C 179.374 285.020,177.546 285.912,177.546 285.989 C 177.546 286.192,183.771 292.022,186.329 294.215 C 237.548 338.106,279.590 307.745,272.681 231.854 C 272.190 226.454,270.321 213.228,270.004 212.911 C 269.968 212.875,269.197 213.668,268.291 214.673 M96.214 236.179 C 86.027 289.881,126.420 309.919,186.005 280.723 C 198.533 274.585,216.448 263.107,224.752 255.900 C 225.651 255.120,225.770 255.131,221.201 255.549 C 219.420 255.711,216.750 255.912,215.267 255.994 L 212.570 256.144 210.254 257.758 C 184.767 275.519,155.946 285.478,137.023 283.065 C 114.974 280.252,103.897 265.208,105.544 240.313 L 105.710 237.807 101.367 235.614 C 98.978 234.407,96.964 233.393,96.892 233.359 C 96.820 233.326,96.515 234.594,96.214 236.179 M260.679 240.236 C 232.445 249.032,191.970 250.987,160.024 245.098 C 158.486 244.814,157.194 244.617,157.152 244.659 C 156.992 244.819,161.554 252.533,161.865 252.630 C 162.046 252.686,164.026 252.966,166.266 253.253 C 197.789 257.287,231.003 255.563,259.530 248.410 L 263.499 247.415 263.635 246.266 C 263.894 244.072,263.837 239.371,263.551 239.398 C 263.407 239.412,262.115 239.789,260.679 240.236 " fill="#c1005a" class="color000 svgShape"></path></svg></g></svg>