<?xml version="1.0" encoding="UTF-8"?>
<!DOCTYPE svg PUBLIC "-//W3C//DTD SVG 1.1//EN" "http://www.w3.org/Graphics/SVG/1.1/DTD/svg11.dtd">
<svg xmlns="http://www.w3.org/2000/svg" version="1.1" width="1920px" height="1080px" style="shape-rendering:geometricPrecision; text-rendering:geometricPrecision; image-rendering:optimizeQuality; fill-rule:evenodd; clip-rule:evenodd" xmlns:xlink="http://www.w3.org/1999/xlink">
<g><path style="opacity:0.882" fill="#454f69" d="M 148.5,56.5 C 153.58,56.2497 158.58,56.7497 163.5,58C 180.44,67.2775 192.94,80.7775 201,98.5C 210.914,97.1054 220.747,97.7721 230.5,100.5C 242.118,93.0566 249.618,96.0566 253,109.5C 262.494,116.512 265.827,125.846 263,137.5C 257.966,150.205 249.632,160.205 238,167.5C 237.396,162.809 237.063,158.142 237,153.5C 246.984,147.194 251.984,138.194 252,126.5C 250.595,119.192 246.762,117.192 240.5,120.5C 234.287,120.399 230.287,117.399 228.5,111.5C 227.667,111.167 226.833,110.833 226,110.5C 220.333,109.833 214.667,109.167 209,108.5C 208.167,108.833 207.333,109.167 206.5,109.5C 220.045,139.48 224.878,170.813 221,203.5C 219.879,217.586 213.712,228.753 202.5,237C 199.352,238.605 196.019,239.605 192.5,240C 186.145,247.052 179.645,247.218 173,240.5C 171.734,237.534 170.567,234.534 169.5,231.5C 158.938,222.601 150.604,211.934 144.5,199.5C 129.09,199.376 114.09,196.876 99.5,192C 83.5212,184.544 78.0212,172.377 83,155.5C 91.4728,139.527 103.973,127.861 120.5,120.5C 122.324,114.69 121.491,109.357 118,104.5C 117.333,101.5 117.333,98.5 118,95.5C 119.817,92.6842 121.983,90.1842 124.5,88C 126.901,72.9467 134.901,62.4467 148.5,56.5 Z M 148.5,68.5 C 155.473,67.5358 161.807,69.0358 167.5,73C 176.14,80.1406 183.14,88.6406 188.5,98.5C 175.985,100.545 163.652,103.379 151.5,107C 150.54,110.73 150.207,114.563 150.5,118.5C 159.175,116.443 167.841,114.277 176.5,112C 181.837,111.166 187.17,110.333 192.5,109.5C 193.167,109.833 193.833,110.167 194.5,110.5C 203.914,129.491 208.914,149.491 209.5,170.5C 176.953,186.982 142.953,191.149 107.5,183C 91.1635,176.55 87.9969,166.05 98,151.5C 105.166,143.829 113.333,137.495 122.5,132.5C 125.039,144.529 127.706,156.529 130.5,168.5C 132.646,168.878 134.813,169.212 137,169.5C 139.385,169.744 141.218,168.911 142.5,167C 136.034,149.037 133.2,130.537 134,111.5C 143.318,104.771 143.818,97.4381 135.5,89.5C 137.589,80.9652 141.922,73.9652 148.5,68.5 Z M 209.5,182.5 C 212.346,195.953 210.18,208.953 203,221.5C 200.888,224.284 198.221,226.284 195,227.5C 192.02,224.525 188.52,222.359 184.5,221C 181.407,220.93 178.407,221.264 175.5,222C 167.062,214.91 160.729,206.41 156.5,196.5C 175.138,195.092 192.805,190.425 209.5,182.5 Z"/></g>
<g><path style="opacity:0.904" fill="#160547" d="M 870.5,56.5 C 883.014,55.4811 893.681,59.6478 902.5,69C 912.571,69.9032 918.237,75.4032 919.5,85.5C 919.053,91.0652 916.553,95.3985 912,98.5C 910.223,118.275 904.723,136.942 895.5,154.5C 903.326,165.472 910.16,177.138 916,189.5C 921.362,201.641 923.362,214.307 922,227.5C 915.801,247.175 902.301,256.509 881.5,255.5C 861.499,254.334 842.666,249 825,239.5C 821.431,241.703 817.931,244.037 814.5,246.5C 811.367,260.237 803.033,264.904 789.5,260.5C 777.359,265.894 764.692,267.728 751.5,266C 739.701,263.537 731.534,256.703 727,245.5C 722.446,230.111 722.779,214.778 728,199.5C 731.194,188.914 735.361,178.747 740.5,169C 732.042,158.525 725.209,147.025 720,134.5C 706.773,130.047 702.773,121.38 708,108.5C 712.575,105.079 714.575,100.412 714,94.5C 718.141,80.0267 727.641,71.5267 742.5,69C 757.557,67.2919 772.223,68.9586 786.5,74C 786.957,74.414 787.291,74.914 787.5,75.5C 783.468,79.2746 779.301,82.9412 775,86.5C 763.327,82.1827 751.494,81.6827 739.5,85C 732.468,88.0354 728.468,93.3688 727.5,101C 729.934,103.434 732.434,105.934 735,108.5C 738.46,115.617 737.96,122.45 733.5,129C 737.188,138.216 742.021,146.716 748,154.5C 768.059,122.108 793.892,95.2746 825.5,74C 839.361,64.8861 854.361,59.0528 870.5,56.5 Z M 869.5,71.5 C 877.008,70.5421 883.675,72.3754 889.5,77C 884.84,86.1885 886.84,93.6885 895.5,99.5C 895.541,114.391 891.875,128.391 884.5,141.5C 875.318,132.484 865.984,123.651 856.5,115C 846.307,107.307 835.973,99.8065 825.5,92.5C 838.647,82.2591 853.314,75.2591 869.5,71.5 Z M 811.5,102.5 C 851.203,123.704 881.37,154.37 902,194.5C 915.32,233.52 901.82,248.02 861.5,238C 853.267,235.59 845.267,232.59 837.5,229C 849.772,217.733 860.939,205.566 871,192.5C 869.946,187.074 867.279,182.407 863,178.5C 847.5,199.333 829.333,217.5 808.5,233C 805.294,231.612 801.794,230.779 798,230.5C 787.424,231.243 782.257,236.909 782.5,247.5C 748.549,259.711 734.383,248.044 740,212.5C 742.089,201.565 745.755,191.232 751,181.5C 762.332,194.9 775.165,206.566 789.5,216.5C 793.676,213.912 797.676,211.079 801.5,208C 785.232,196.399 770.899,182.733 758.5,167C 772.269,142.389 789.935,120.889 811.5,102.5 Z"/></g>
<g><path style="opacity:0.785" fill="#160547" d="M 1405.5,70.5 C 1409.51,70.3345 1413.51,70.5012 1417.5,71C 1420.93,73.4349 1424.6,75.4349 1428.5,77C 1431.24,80.633 1431.07,84.133 1428,87.5C 1427.09,95.5511 1424.59,103.051 1420.5,110C 1429.02,119.212 1432.52,130.045 1431,142.5C 1425.64,150.625 1418.14,153.458 1408.5,151C 1402.99,149.662 1397.65,147.829 1392.5,145.5C 1390.94,145.722 1389.61,146.389 1388.5,147.5C 1387.05,153.146 1383.55,155.146 1378,153.5C 1354.18,158.662 1345.84,149.329 1353,125.5C 1354.12,122.145 1355.62,118.978 1357.5,116C 1353.79,112.09 1350.96,107.59 1349,102.5C 1345.58,101.092 1343.75,98.5923 1343.5,95C 1345.45,90.3142 1347.29,85.4809 1349,80.5C 1352.92,76.4691 1357.75,74.4691 1363.5,74.5C 1368.43,74.8499 1373.1,76.0166 1377.5,78C 1376.17,79.3333 1374.83,80.6667 1373.5,82C 1368.52,81.7812 1363.52,81.7812 1358.5,82C 1354.82,83.3198 1353.32,85.8198 1354,89.5C 1357.51,92.648 1358.01,96.148 1355.5,100C 1357.2,103.232 1359.03,106.399 1361,109.5C 1371.7,91.6262 1386.53,78.6262 1405.5,70.5 Z M 1406.5,77.5 C 1410.38,77.0845 1414.04,77.5845 1417.5,79C 1416.42,80.7261 1416.26,82.5594 1417,84.5C 1418.18,86.3436 1419.35,88.1769 1420.5,90C 1419.76,94.9611 1418.09,99.4611 1415.5,103.5C 1408.56,96.3731 1400.9,90.2065 1392.5,85C 1397.1,82.2021 1401.77,79.7021 1406.5,77.5 Z M 1386.5,89.5 C 1406.2,99.3942 1419.2,114.894 1425.5,136C 1423,143.917 1417.67,146.584 1409.5,144C 1405.36,143.066 1401.36,141.732 1397.5,140C 1399.96,138.542 1402.13,136.709 1404,134.5C 1406.69,131.308 1409.19,127.975 1411.5,124.5C 1410.4,122.611 1409.06,120.945 1407.5,119.5C 1401.17,127.993 1393.67,135.326 1385,141.5C 1378.93,139.28 1375.43,141.28 1374.5,147.5C 1361.56,151.73 1356.06,147.063 1358,133.5C 1359.03,129.392 1360.36,125.392 1362,121.5C 1366.67,126.664 1371.83,131.331 1377.5,135.5C 1380.37,134.808 1381.87,133.141 1382,130.5C 1375.75,126.126 1370.25,120.959 1365.5,115C 1371.2,105.462 1378.2,96.9621 1386.5,89.5 Z"/></g>
<g><path style="opacity:0.843" fill="#160547" d="M 1384.5,103.5 C 1393.95,102.119 1398.45,106.119 1398,115.5C 1395.09,122.029 1390.26,123.862 1383.5,121C 1377.93,114.752 1378.26,108.919 1384.5,103.5 Z"/></g>
<g><path style="opacity:0.918" fill="#454f69" d="M 168.5,131.5 C 187.068,131.964 193.234,140.964 187,158.5C 177.612,167.82 168.278,167.82 159,158.5C 153.143,146.253 156.31,137.253 168.5,131.5 Z"/></g>
<g><path style="opacity:0.932" fill="#160547" d="M 811.5,138.5 C 828.556,136.892 838.222,144.558 840.5,161.5C 835.765,181.701 823.765,187.868 804.5,180C 791.167,167.333 791.167,154.667 804.5,142C 806.925,140.787 809.259,139.621 811.5,138.5 Z"/></g>
<g><path style="opacity:0.754" fill="#795fc0" d="M 1693.5,257.5 C 1702.93,257.737 1710.43,261.737 1716,269.5C 1718.83,274.333 1721.67,279.167 1724.5,284C 1730.21,285.029 1735.87,286.195 1741.5,287.5C 1745.64,284.63 1749.47,284.963 1753,288.5C 1754.88,293.385 1757.22,298.052 1760,302.5C 1761.03,307.894 1760.03,312.894 1757,317.5C 1754.17,320.333 1751.33,323.167 1748.5,326C 1746.56,327.903 1744.23,328.736 1741.5,328.5C 1741.34,325.813 1741.5,323.146 1742,320.5C 1747.84,317.301 1751.34,312.468 1752.5,306C 1752.58,301.718 1750.74,300.218 1747,301.5C 1742.68,301.01 1740.18,298.676 1739.5,294.5C 1735.55,294.314 1731.72,293.648 1728,292.5C 1730.04,299.982 1731.7,307.649 1733,315.5C 1733.67,324.5 1733.67,333.5 1733,342.5C 1731.88,352.574 1727.71,361.074 1720.5,368C 1714.65,370.629 1708.65,371.963 1702.5,372C 1700.06,369.705 1698.56,366.872 1698,363.5C 1692.39,357.784 1687.89,351.284 1684.5,344C 1673.69,343.275 1663.69,340.109 1654.5,334.5C 1647.14,326.609 1646.64,318.275 1653,309.5C 1659.31,302.602 1666.81,297.602 1675.5,294.5C 1675.13,289.717 1674.63,285.051 1674,280.5C 1678,275.181 1681.5,269.514 1684.5,263.5C 1687.08,260.72 1690.08,258.72 1693.5,257.5 Z M 1694.5,265.5 C 1700.66,265.666 1705.5,268.333 1709,273.5C 1711.17,277 1713.33,280.5 1715.5,284C 1708.06,285.029 1700.73,286.529 1693.5,288.5C 1692.03,291.319 1692.2,293.986 1694,296.5C 1702.33,293.812 1710.83,292.812 1719.5,293.5C 1723.5,304.843 1725.34,316.51 1725,328.5C 1708.71,335.017 1691.88,336.85 1674.5,334C 1653.38,329.59 1651.05,320.59 1667.5,307C 1670.11,305.519 1672.78,304.352 1675.5,303.5C 1675.84,310.224 1676.67,316.89 1678,323.5C 1680.46,325.321 1683.29,325.988 1686.5,325.5C 1683.67,313.957 1683.01,302.291 1684.5,290.5C 1685.81,289.687 1686.98,288.687 1688,287.5C 1688.55,282.966 1688.22,278.633 1687,274.5C 1688.64,270.7 1691.14,267.7 1694.5,265.5 Z M 1722.5,337.5 C 1723.5,337.5 1724.5,337.5 1725.5,337.5C 1725.03,345.062 1722.86,352.062 1719,358.5C 1717.62,360.213 1715.96,361.547 1714,362.5C 1711.55,358.095 1707.72,356.262 1702.5,357C 1699.01,353.015 1696.01,348.682 1693.5,344C 1699.36,342.703 1705.36,341.703 1711.5,341C 1715.43,340.276 1719.09,339.109 1722.5,337.5 Z"/></g>
<g><path style="opacity:0.821" fill="#795fc0" d="M 1701.5,303.5 C 1713.45,303.4 1717.62,309.067 1714,320.5C 1707.05,327.025 1700.72,326.359 1695,318.5C 1692.87,311.45 1695.03,306.45 1701.5,303.5 Z"/></g>
<g><path style="opacity:0.757" fill="#454f69" d="M 1354.5,381.5 C 1375.35,387.384 1380.35,399.717 1369.5,418.5C 1367.55,416.772 1366.21,414.605 1365.5,412C 1367.38,406.975 1367.88,401.808 1367,396.5C 1366.17,395.667 1365.33,394.833 1364.5,394C 1361.75,394.578 1358.92,395.411 1356,396.5C 1350.58,393.805 1345.42,394.305 1340.5,398C 1353.36,408.529 1363.2,421.362 1370,436.5C 1375.14,449.263 1372.98,460.43 1363.5,470C 1362.13,470.875 1360.63,471.375 1359,471.5C 1349.66,467.58 1340.49,463.247 1331.5,458.5C 1322.17,463.832 1312.17,465.999 1301.5,465C 1293.79,462.76 1290.12,457.593 1290.5,449.5C 1291.97,440.264 1295.3,431.764 1300.5,424C 1299.2,420.966 1297.03,418.8 1294,417.5C 1293.13,416.127 1292.63,414.627 1292.5,413C 1289.17,385.657 1300.17,377.323 1325.5,388C 1328.42,389.709 1331.25,391.542 1334,393.5C 1338.83,390.504 1344,388.17 1349.5,386.5C 1350.58,384.132 1352.24,382.465 1354.5,381.5 Z M 1305.5,390.5 C 1313.36,390.262 1320.36,392.595 1326.5,397.5C 1321.16,401.522 1316.16,406.022 1311.5,411C 1312.29,413.365 1313.46,415.532 1315,417.5C 1320.22,411.06 1326.55,406.06 1334,402.5C 1342.9,409.403 1350.4,417.57 1356.5,427C 1344.02,443.569 1327.69,454.069 1307.5,458.5C 1301.66,458.329 1298.33,455.329 1297.5,449.5C 1298.62,442.926 1301.12,436.926 1305,431.5C 1308.58,436.8 1312.74,441.633 1317.5,446C 1320.1,445.874 1322.43,444.874 1324.5,443C 1316.43,435.77 1310.1,427.27 1305.5,417.5C 1307.84,411.999 1306.34,407.999 1301,405.5C 1298.39,399.163 1299.89,394.163 1305.5,390.5 Z M 1359.5,433.5 C 1362.68,437.138 1364.51,441.472 1365,446.5C 1366.07,450.858 1365.41,454.858 1363,458.5C 1359.12,455.78 1355.79,456.446 1353,460.5C 1348.01,458.759 1343.18,456.592 1338.5,454C 1346.71,448.284 1353.71,441.45 1359.5,433.5 Z"/></g>
<g><path style="opacity:0.841" fill="#795fc0" d="M 856.5,384.5 C 867.668,385.032 878.002,389.199 887.5,397C 900.76,410.321 910.926,425.821 918,443.5C 920.942,443.759 923.608,443.425 926,442.5C 935.577,444.116 945.41,446.116 955.5,448.5C 965.793,441.888 974.293,443.888 981,454.5C 981.251,456.433 981.751,458.266 982.5,460C 982.167,460.333 981.833,460.667 981.5,461C 995.928,474.754 998.428,490.254 989,507.5C 980.384,518.657 970.05,527.99 958,535.5C 956.383,529.674 956.05,523.674 957,517.5C 967.299,511.531 974.799,503.031 979.5,492C 980.046,485.476 978.046,479.642 973.5,474.5C 962.661,478.334 955.161,474.667 951,463.5C 942.245,460.129 933.411,458.462 924.5,458.5C 930.228,478.554 934.561,498.72 937.5,519C 937.422,529.811 937.422,540.478 937.5,551C 936.582,556.346 935.582,561.68 934.5,567C 933.326,581.734 928.493,595.568 920,608.5C 912.57,617.133 903.07,621.966 891.5,623C 884.148,629.95 876.815,630.284 869.5,624C 866.189,620.18 864.356,615.68 864,610.5C 850.651,597.534 840.818,582.701 834.5,566C 828.129,565.326 821.296,564.159 814,562.5C 813,562.833 812,563.167 811,563.5C 804.844,561.904 798.511,559.904 792,557.5C 781.831,554.887 772.831,549.554 765,541.5C 758.099,532.803 755.599,523.303 757.5,513C 762.129,501.809 769.129,491.975 778.5,483.5C 789.37,475.229 801.037,468.229 813.5,462.5C 815.257,458.408 815.923,454.574 815.5,451C 807.851,439.705 809.518,430.538 820.5,423.5C 824.783,409.263 832.783,397.596 844.5,388.5C 848.614,387.147 852.614,385.814 856.5,384.5 Z M 814.5,479.5 C 815.5,494.997 817.666,510.33 821,525.5C 822,526.167 823,526.833 824,527.5C 827.803,527.534 831.636,527.534 835.5,527.5C 835.833,526.5 836.167,525.5 836.5,524.5C 830.535,499.872 828.535,476.205 830.5,453.5C 831.93,453.579 833.264,453.246 834.5,452.5C 835.528,450.639 837.028,449.305 839,448.5C 840.171,445.65 841.338,442.816 842.5,440C 841.641,434.717 839.641,429.55 836.5,424.5C 838.581,418.588 841.581,412.755 845.5,407C 852.476,399.887 860.309,398.72 869,403.5C 869.333,403.167 869.667,402.833 870,402.5C 872.855,405.35 876.022,407.85 879.5,410C 888.055,419.76 895.388,430.427 901.5,442C 901,442.5 900.5,443 900,443.5C 894.501,443.092 888.835,443.092 883,443.5C 873.742,445.133 864.242,446.967 854.5,449C 853.13,450.441 852.13,452.108 851.5,454C 851.335,457.346 851.669,460.846 852.5,464.5C 853.086,464.709 853.586,465.043 854,465.5C 858.254,463.188 862.587,462.188 867,462.5C 872.959,460.982 878.959,459.649 885,458.5C 892.854,457.92 900.354,457.92 907.5,458.5C 916.88,483.929 921.88,509.429 922.5,535C 882.031,551.522 841.365,554.856 800.5,545C 791.095,542.154 783.095,537.654 776.5,531.5C 775.333,529.167 774.167,526.833 773,524.5C 772.19,516.575 774.524,509.242 780,502.5C 789.849,492.483 801.349,484.816 814.5,479.5 Z M 920.5,551.5 C 921.868,568.937 917.035,585.604 906,601.5C 902.918,603.625 899.751,605.625 896.5,607.5C 893.607,602.374 889.44,598.708 884,596.5C 880.664,596.1 877.33,596.766 874,598.5C 863.607,589.023 856.274,577.69 852,564.5C 869.638,564.376 886.971,561.71 904,556.5C 904.333,556.833 904.667,557.167 905,557.5C 910.288,555.575 915.455,553.575 920.5,551.5 Z"/></g>
<g><path style="opacity:0.741" fill="#454f69" d="M 490.5,404.5 C 495.814,403.99 500.48,405.49 504.5,409C 508.216,413.048 511.55,417.382 514.5,422C 520.024,423.062 525.524,423.229 531,422.5C 533.034,422.354 534.701,423.02 536,424.5C 537.968,427.813 539.968,431.146 542,434.5C 542.02,442.187 538.853,448.354 532.5,453C 531.552,453.483 530.552,453.649 529.5,453.5C 529.337,451.143 529.503,448.81 530,446.5C 533.899,443.693 535.899,440.026 536,435.5C 533.867,433.862 531.367,433.029 528.5,433C 525.927,428.859 522.26,427.526 517.5,429C 523.394,442.649 525.227,456.816 523,471.5C 520.16,483.475 512.993,488.141 501.5,485.5C 497.27,480.056 493.27,474.389 489.5,468.5C 483.066,467.84 476.733,466.673 470.5,465C 461.177,460.536 459.01,453.703 464,444.5C 468.105,439.557 472.938,435.557 478.5,432.5C 478.833,431.833 479.167,431.167 479.5,430.5C 477.709,427.752 477.209,424.752 478,421.5C 480.375,417.72 482.375,413.72 484,409.5C 485.965,407.45 488.132,405.783 490.5,404.5 Z M 491.5,410.5 C 498.745,411.72 504.078,415.72 507.5,422.5C 502.876,423.959 498.21,425.292 493.5,426.5C 492.534,428.396 492.201,430.396 492.5,432.5C 498.465,431.04 504.465,429.707 510.5,428.5C 515.328,436.789 517.328,445.622 516.5,455C 501.973,461.825 486.973,463.158 471.5,459C 466.719,455.521 466.219,451.355 470,446.5C 472.397,443.6 475.23,441.267 478.5,439.5C 479.086,439.709 479.586,440.043 480,440.5C 480.842,444.869 481.842,449.203 483,453.5C 485.139,454.769 487.305,454.769 489.5,453.5C 484.945,443.656 484.612,433.823 488.5,424C 485.848,418.769 486.848,414.269 491.5,410.5 Z M 517.5,460.5 C 518.856,467.611 517.023,473.944 512,479.5C 509.326,477.129 506.159,475.963 502.5,476C 499.683,473.362 497.35,470.362 495.5,467C 503.318,466.051 510.651,463.884 517.5,460.5 Z"/></g>
<g><path style="opacity:0.801" fill="#454f69" d="M 1330.5,415.5 C 1340.67,415.823 1344.5,420.823 1342,430.5C 1335.51,437.425 1329.51,437.092 1324,429.5C 1322.19,422.796 1324.36,418.129 1330.5,415.5 Z"/></g>
<g><path style="opacity:0.815" fill="#454f69" d="M 498.5,437.5 C 508.405,436.905 511.572,441.239 508,450.5C 498.332,455.482 493.999,452.482 495,441.5C 495.69,439.65 496.856,438.316 498.5,437.5 Z"/></g>
<g><path style="opacity:0.888" fill="#785fc0" d="M 870.5,482.5 C 890.333,481.499 899.5,490.832 898,510.5C 893.179,522.238 884.512,527.571 872,526.5C 857.171,520.485 852.171,509.485 857,493.5C 860.502,488.487 865.002,484.82 870.5,482.5 Z"/></g>
<g><path style="opacity:0.752" fill="#160547" d="M 219.5,547.5 C 231.59,548.721 240.59,554.721 246.5,565.5C 249.485,566.87 252.151,566.37 254.5,564C 257.649,562.965 260.316,563.632 262.5,566C 269.739,566.734 275.572,569.9 280,575.5C 282.242,581.478 281.575,587.145 278,592.5C 273.956,598.211 268.956,602.878 263,606.5C 262.347,614.677 262.68,622.677 264,630.5C 251.388,644.146 239.222,643.646 227.5,629C 229.553,627.92 231.72,627.086 234,626.5C 237.714,630.189 242.047,632.856 247,634.5C 252.594,633.109 254.26,629.775 252,624.5C 256.061,621.428 257.394,617.428 256,612.5C 255.586,612.043 255.086,611.709 254.5,611.5C 235.768,622.201 216.101,624.701 195.5,619C 193.91,617.954 192.41,616.787 191,615.5C 189.834,612.497 188.167,609.83 186,607.5C 185.333,604.833 185.333,602.167 186,599.5C 187.171,598.107 188.671,597.273 190.5,597C 194.71,591.122 199.877,586.289 206,582.5C 205.933,574.011 206.933,565.678 209,557.5C 211.106,552.557 214.606,549.224 219.5,547.5 Z M 219.5,554.5 C 223.131,554.16 226.464,554.994 229.5,557C 233.016,560.349 236.349,563.849 239.5,567.5C 233.839,569.498 228.172,571.498 222.5,573.5C 222.167,574.5 221.833,575.5 221.5,576.5C 221.342,578.319 222.009,579.652 223.5,580.5C 231.424,576.78 239.757,574.447 248.5,573.5C 251.366,574.759 254.366,575.759 257.5,576.5C 259.981,576.187 262.147,575.187 264,573.5C 274.897,575.628 277.23,581.295 271,590.5C 267.965,593.87 264.632,596.87 261,599.5C 259.867,593.6 258.033,587.933 255.5,582.5C 253.257,581.526 250.924,581.192 248.5,581.5C 250.424,587.441 252.257,593.441 254,599.5C 254.798,601.259 254.631,602.926 253.5,604.5C 244.649,609.394 235.316,612.561 225.5,614C 214.429,596.834 211.262,578.334 216,558.5C 217.376,557.295 218.542,555.962 219.5,554.5 Z M 207.5,589.5 C 210.412,597.882 213.745,606.215 217.5,614.5C 210.484,616.282 203.817,615.448 197.5,612C 194.882,610.026 195.048,608.193 198,606.5C 198.758,604.231 198.591,602.064 197.5,600C 200.363,595.972 203.696,592.472 207.5,589.5 Z"/></g>
<g><path style="opacity:0.821" fill="#160547" d="M 231.5,585.5 C 240.865,584.884 244.699,589.218 243,598.5C 240.103,603.155 235.937,604.655 230.5,603C 225.931,600.459 224.431,596.625 226,591.5C 227.36,588.977 229.193,586.977 231.5,585.5 Z"/></g>
<g><path style="opacity:0.844" fill="#160547" d="M 1577.5,677.5 C 1582.38,677.515 1588.05,678.348 1594.5,680C 1608.97,686.24 1621.3,695.407 1631.5,707.5C 1636.55,713.552 1641.22,719.885 1645.5,726.5C 1648.47,727.288 1651.31,727.621 1654,727.5C 1655.73,726.751 1657.57,726.251 1659.5,726C 1666.23,718.22 1673.9,716.72 1682.5,721.5C 1684.27,723.557 1686.27,725.39 1688.5,727C 1704.68,728.424 1718.35,735.257 1729.5,747.5C 1735.11,757.146 1736.45,766.313 1733.5,775C 1733.83,775.333 1734.17,775.667 1734.5,776C 1729.64,787.774 1722.97,798.441 1714.5,808C 1705.1,816.73 1695.1,824.73 1684.5,832C 1685.17,835 1685.83,838 1686.5,841C 1686.7,851.38 1686.36,861.38 1685.5,871C 1689.16,874.997 1691.49,879.663 1692.5,885C 1690.77,894.565 1685.1,900.398 1675.5,902.5C 1664.71,918.931 1650.21,923.597 1632,916.5C 1631.67,916.833 1631.33,917.167 1631,917.5C 1617.51,910.355 1605.68,901.188 1595.5,890C 1596.38,888.529 1597.71,887.696 1599.5,887.5C 1603.13,887.322 1606.96,886.656 1611,885.5C 1612.63,885.625 1614.13,886.125 1615.5,887C 1623.98,896.56 1634.31,902.394 1646.5,904.5C 1652.94,903.784 1657.94,900.784 1661.5,895.5C 1656.02,883.788 1658.85,874.788 1670,868.5C 1671.05,859.371 1671.22,850.371 1670.5,841.5C 1659.93,845.521 1649.59,850.021 1639.5,855C 1603.19,869.578 1566.36,874.411 1529,869.5C 1520.77,866.639 1512.94,862.806 1505.5,858C 1502.3,855.131 1499.46,851.965 1497,848.5C 1495.5,844.484 1494,840.484 1492.5,836.5C 1488.53,834.022 1485.86,830.522 1484.5,826C 1484.14,819.361 1487.14,813.361 1493.5,808C 1495.79,807.178 1498.12,806.511 1500.5,806C 1511.7,790.135 1525.53,776.968 1542,766.5C 1542.25,758.821 1541.75,750.655 1540.5,742C 1540.64,737.453 1541.31,732.119 1542.5,726C 1543.02,714.42 1546.52,703.253 1553,692.5C 1559.47,684.526 1567.63,679.526 1577.5,677.5 Z M 1628.5,730.5 C 1612.46,734.521 1596.79,739.688 1581.5,746C 1580.65,749.107 1580.32,752.107 1580.5,755C 1580.91,757.908 1582.07,760.408 1584,762.5C 1607.84,750.833 1632.67,744.5 1658.5,743.5C 1664.28,751.482 1671.28,753.982 1679.5,751C 1682.31,749.356 1684.64,747.19 1686.5,744.5C 1696.41,743.586 1705.41,746.586 1713.5,753.5C 1720.62,762.123 1721.12,771.123 1715,780.5C 1706.69,793.977 1695.86,804.977 1682.5,813.5C 1678.41,797.475 1673.24,781.808 1667,766.5C 1661.7,765.501 1656.53,765.334 1651.5,766C 1650.98,766.561 1650.64,767.228 1650.5,768C 1658.33,786.205 1663.83,804.705 1667,823.5C 1649.44,834.343 1630.6,842.509 1610.5,848C 1603.4,849.659 1596.57,851.159 1590,852.5C 1583.02,842.601 1577.36,831.934 1573,820.5C 1560.28,788.91 1555.12,757.41 1557.5,726C 1558.51,721.467 1559.67,716.633 1561,711.5C 1563.24,709.396 1564.24,707.062 1564,704.5C 1567.59,698.908 1572.59,695.241 1579,693.5C 1589.79,693.739 1599.62,698.239 1608.5,707C 1616.47,713.794 1623.13,721.627 1628.5,730.5 Z M 1571.5,854.5 C 1561.58,856.489 1552.08,856.489 1543,854.5C 1533.36,854.116 1524.52,851.449 1516.5,846.5C 1513.63,844.128 1511.3,841.295 1509.5,838C 1511,836.833 1512.5,835.667 1514,834.5C 1515.12,831.751 1516.62,829.251 1518.5,827C 1518.42,824.695 1518.25,822.195 1518,819.5C 1517.55,817.464 1516.71,815.63 1515.5,814C 1519.56,806.444 1524.89,799.944 1531.5,794.5C 1535.36,791.143 1539.36,787.976 1543.5,785C 1544.45,784.517 1545.45,784.351 1546.5,784.5C 1551.68,809.037 1560.01,832.371 1571.5,854.5 Z"/></g>
<g><path style="opacity:0.838" fill="#795fc0" d="M 1263.5,713.5 C 1268.27,712.522 1271.94,714.022 1274.5,718C 1284.97,719.638 1290.3,725.805 1290.5,736.5C 1289.91,743.523 1288.08,750.19 1285,756.5C 1283.04,754.089 1281.21,751.589 1279.5,749C 1283.23,741.941 1283.23,734.941 1279.5,728C 1277.83,727.167 1276.17,726.333 1274.5,725.5C 1270.49,729.978 1265.82,730.645 1260.5,727.5C 1256.34,729.05 1252.34,730.884 1248.5,733C 1261.45,743.022 1272.29,754.856 1281,768.5C 1286.17,777.34 1289.34,786.84 1290.5,797C 1289.92,800.564 1289.09,804.064 1288,807.5C 1285.54,810.275 1283.54,813.275 1282,816.5C 1276.97,821.893 1272.13,821.726 1267.5,816C 1257.96,814.264 1249.12,810.764 1241,805.5C 1230.8,812.235 1219.63,815.735 1207.5,816C 1196.88,813.969 1191.55,807.469 1191.5,796.5C 1192.8,785.75 1196.46,775.917 1202.5,767C 1201.47,763.307 1199.14,760.974 1195.5,760C 1192.3,756.308 1191.63,752.141 1193.5,747.5C 1189.05,722.124 1199.39,712.957 1224.5,720C 1230.36,722.18 1235.86,725.013 1241,728.5C 1246.36,724.738 1252.19,721.904 1258.5,720C 1260,717.672 1261.67,715.505 1263.5,713.5 Z M 1206.5,725.5 C 1216.34,725.061 1225.34,727.561 1233.5,733C 1227.36,738.134 1221.53,743.634 1216,749.5C 1215.46,753.287 1216.96,755.453 1220.5,756C 1226.74,749.093 1233.57,742.927 1241,737.5C 1252.22,745.72 1261.72,755.553 1269.5,767C 1255.47,788.593 1235.97,802.426 1211,808.5C 1203.79,807.953 1199.95,804.12 1199.5,797C 1200.33,789.344 1202.66,782.178 1206.5,775.5C 1207,774.479 1207.67,774.312 1208.5,775C 1212.76,781.26 1217.76,786.927 1223.5,792C 1226.49,792.001 1228.82,790.668 1230.5,788C 1221.39,779.228 1213.39,769.561 1206.5,759C 1210.17,752.156 1208.33,747.322 1201,744.5C 1198.7,738.985 1199.03,733.652 1202,728.5C 1203.65,727.601 1205.15,726.601 1206.5,725.5 Z M 1273.5,774.5 C 1277.24,778.308 1279.74,782.975 1281,788.5C 1282.82,793.528 1282.82,798.528 1281,803.5C 1278.24,804.117 1275.41,804.284 1272.5,804C 1270.55,805.633 1268.38,806.799 1266,807.5C 1259.6,806.211 1253.76,803.711 1248.5,800C 1258.38,792.958 1266.71,784.458 1273.5,774.5 Z"/></g>
<g><path style="opacity:0.883" fill="#795fc0" d="M 1237.5,755.5 C 1246.33,754.505 1251.67,758.339 1253.5,767C 1250.53,777.321 1244.2,780.321 1234.5,776C 1227.37,768.001 1228.37,761.167 1237.5,755.5 Z"/></g>
<g><path style="opacity:0.908" fill="#795fc0" d="M 285.5,765.5 C 292.751,765.126 298.418,767.959 302.5,774C 319.661,776.494 329.494,786.327 332,803.5C 332.821,818.229 329.988,832.229 323.5,845.5C 322.726,846.711 321.893,846.711 321,845.5C 318.266,841.609 315.766,837.609 313.5,833.5C 318.063,822.472 319.23,811.138 317,799.5C 314.165,793.172 309.332,789.172 302.5,787.5C 297.922,794.197 291.589,796.697 283.5,795C 280.827,793.999 278.493,792.499 276.5,790.5C 267.77,793.698 259.437,797.698 251.5,802.5C 266.114,814.612 279.947,827.612 293,841.5C 306.523,857.864 317.523,875.864 326,895.5C 331.699,909.057 333.366,923.057 331,937.5C 329.009,944.809 325.009,950.809 319,955.5C 315.576,967.962 307.743,972.129 295.5,968C 292.833,966.667 290.833,964.667 289.5,962C 271.034,958.347 253.867,951.514 238,941.5C 223.031,950.899 206.864,957.399 189.5,961C 155.112,963.61 140.279,947.776 145,913.5C 149.043,897.086 155.543,881.753 164.5,867.5C 162.413,864.327 160.579,860.994 159,857.5C 145.856,853.371 142.023,844.871 147.5,832C 141.467,816.4 142.3,801.233 150,786.5C 160.668,774.867 173.835,770.701 189.5,774C 207.166,777.42 223.333,784.253 238,794.5C 248.745,787.378 260.245,781.711 272.5,777.5C 275.007,771.319 279.341,767.319 285.5,765.5 Z M 172.5,787.5 C 191.867,786.901 209.533,792.067 225.5,803C 212.478,812.014 200.644,822.514 190,834.5C 190.851,839.549 192.851,844.215 196,848.5C 208.753,834.411 222.753,821.745 238,810.5C 260.355,826.021 279.188,845.021 294.5,867.5C 270.59,903.914 238.257,929.747 197.5,945C 163.594,953.091 151.428,940.258 161,906.5C 164.234,897.46 168.234,888.793 173,880.5C 182.894,893.399 193.894,905.399 206,916.5C 210.415,914.377 214.582,911.877 218.5,909C 199.812,892.329 184.146,873.329 171.5,852C 177.45,843.377 176.45,835.71 168.5,829C 165.46,827.718 162.627,826.218 160,824.5C 156.954,815.456 156.954,806.456 160,797.5C 162.887,792.434 167.054,789.101 172.5,787.5 Z M 302.5,880.5 C 311.778,893.994 317.111,908.994 318.5,925.5C 318.913,932.203 316.746,937.87 312,942.5C 302.944,937.514 295.277,939.181 289,947.5C 275.588,944.752 263.088,939.752 251.5,932.5C 270.531,917.136 287.531,899.803 302.5,880.5 Z"/></g>
<g><path style="opacity:0.889" fill="#160547" d="M 1607.5,776.5 C 1623.43,774.996 1633.43,782.162 1637.5,798C 1636.95,811.281 1629.78,819.781 1616,823.5C 1614,822.167 1612,822.167 1610,823.5C 1600.69,821.095 1594.36,815.095 1591,805.5C 1589.15,791.886 1594.65,782.219 1607.5,776.5 Z"/></g>
<g><path style="opacity:0.809" fill="#454f69" d="M 969.5,781.5 C 971.642,781.69 973.975,781.856 976.5,782C 979.639,782.892 981.972,784.725 983.5,787.5C 995.062,790.233 1003.06,797.066 1007.5,808C 1008.75,817.92 1007.25,828.42 1003,839.5C 1001.82,842.533 1000.16,845.199 998,847.5C 995.633,843.942 993.133,840.442 990.5,837C 994.053,828.537 995.72,820.203 995.5,812C 993.667,806.167 989.833,802.333 984,800.5C 977.903,808.766 971.07,809.433 963.5,802.5C 957.021,804.909 950.688,807.575 944.5,810.5C 975.025,834.456 995.025,864.956 1004.5,902C 1004.68,906.722 1004.18,911.889 1003,917.5C 1000.81,923.88 997.147,929.213 992,933.5C 990.36,939.14 986.693,942.807 981,944.5C 975.877,944.51 971.71,942.176 968.5,937.5C 954.178,933.672 940.845,927.672 928.5,919.5C 912.036,929.919 894.536,934.586 876,933.5C 865.069,929.978 857.902,922.811 854.5,912C 855.122,907.137 855.122,902.804 854.5,899C 858.196,884.309 864.196,870.643 872.5,858C 872.223,856.108 871.223,854.775 869.5,854C 870.634,852.984 870.301,852.317 868.5,852C 868.833,851.667 869.167,851.333 869.5,851C 858.595,847.049 855.595,839.715 860.5,829C 858.765,821.869 858.265,814.369 859,806.5C 863.232,790.233 873.565,782.566 890,783.5C 906.211,786.272 920.877,792.606 934,802.5C 942.629,797.14 951.295,793.474 960,791.5C 962.359,787.31 965.526,783.977 969.5,781.5 Z M 880.5,796.5 C 884.335,796.541 888.168,796.541 892,796.5C 902.706,798.595 912.539,803.095 921.5,810C 911.149,817.008 901.816,825.175 893.5,834.5C 894.905,837.508 896.238,840.008 897.5,842C 897.167,842.333 896.833,842.667 896.5,843C 897.759,843.982 899.092,844.315 900.5,844C 909.975,833.366 920.808,824.533 933,817.5C 949.984,829.816 963.817,844.983 974.5,863C 952.962,892.611 924.795,912.111 890,921.5C 886.751,921.042 883.751,921.042 881,921.5C 872.892,919.963 868.059,915.463 866.5,908C 867.646,894.585 872.146,881.752 880,869.5C 886.759,879.829 894.592,889.329 903.5,898C 907.813,897.341 911.48,895.341 914.5,892C 900.505,878.694 889.171,863.361 880.5,846C 884.925,839.324 884.258,833.157 878.5,827.5C 875.912,826.806 873.579,825.64 871.5,824C 871.833,823.667 872.167,823.333 872.5,823C 869.524,816.225 870.024,809.058 874,801.5C 875.965,799.45 878.132,797.783 880.5,796.5 Z M 980.5,874.5 C 981.376,874.369 982.043,874.702 982.5,875.5C 989.355,886.948 992.188,899.615 991,913.5C 990.68,916.672 989.18,919.005 986.5,920.5C 979.514,917.078 973.681,918.411 969,924.5C 958.687,921.506 948.854,917.339 939.5,912C 955.443,901.902 969.109,889.402 980.5,874.5 Z"/></g>
<g><path style="opacity:0.859" fill="#454f69" d="M 929.5,842.5 C 943.307,843.48 949.973,850.98 949.5,865C 942.783,878.751 933.116,881.751 920.5,874C 912.267,864.34 912.6,855.007 921.5,846C 924.158,844.522 926.825,843.355 929.5,842.5 Z"/></g>
<g><path style="opacity:0.941" fill="#785fc0" d="M 232.5,846.5 C 248.734,844.41 258.067,851.41 260.5,867.5C 258.129,883.692 248.796,890.525 232.5,888C 219.78,882.394 215.28,872.894 219,859.5C 221.442,852.888 225.942,848.555 232.5,846.5 Z"/></g>
</svg>
